<svg id="Layer_1" data-name="Layer 1" xmlns="http://www.w3.org/2000/svg" xmlns:xlink="http://www.w3.org/1999/xlink" viewBox="0 0 200 120"><defs><style>.cls-1,.cls-5,.cls-7{fill:#007599;}.cls-1,.cls-2,.cls-3{clip-rule:evenodd;}.cls-12,.cls-2,.cls-8{fill:#fff;}.cls-10,.cls-14,.cls-3{fill:#003f72;}.cls-4{fill:none;}.cls-10,.cls-5,.cls-8{fill-rule:evenodd;}.cls-6{clip-path:url(#clip-path);}.cls-9{clip-path:url(#clip-path-2);}.cls-11{clip-path:url(#clip-path-3);}.cls-13{clip-path:url(#clip-path-4);}.cls-15{clip-path:url(#clip-path-5);}</style><clipPath id="clip-path"><path class="cls-1" d="M157.5,47.32c6.44,4.86,26.63-10.71,40.78-17.41V94.42c-20.36-7.32-35.06-20.45-48-34a55.51,55.51,0,0,0,7.25-13.11"/></clipPath><clipPath id="clip-path-2"><path class="cls-1" d="M119.38,21.49a107.41,107.41,0,0,1,42.15,32.32c-11.28,3.46-15.73,12.08-24.69,16.48a112.27,112.27,0,0,1-49.68,11.5A112.25,112.25,0,0,1,24.32,62.68c8.49-17.54,36.61-61.34,95.06-41.19"/></clipPath><clipPath id="clip-path-3"><path class="cls-2" d="M77.38,12.94a106.82,106.82,0,0,1,42,8.55C84.41,10.17,72.83,54.14,54,61.92c-18.3,7.53-29,1.16-29.64.76A113.67,113.67,0,0,1,2.48,43.52a106.71,106.71,0,0,1,74.9-30.58"/></clipPath><clipPath id="clip-path-4"><path class="cls-3" d="M57.83,77.94a112.63,112.63,0,0,0,94.35-16.76c3-2.14,5.68-4.48,8.58-6.77a154.52,154.52,0,0,1,37.52-21.83V8.86c-31.72,16-50.23,46-75,59.5C90.92,86,57.83,77.94,57.83,77.94"/></clipPath><clipPath id="clip-path-5"><path class="cls-4" d="M7.87,101.76H2.2V71.06h7.92l8.17,23.32h0l8.12-23.32h7.92v30.7H28.64V78.46h0l-8.11,23.3H16L7.86,78.52h0Zm39.39,7.76H41.4l4.27-9.83v0l-8.42-21h6.24l5.24,15h0l5.63-15h6.25ZM80.73,83.6v18.16H75.2V83.6h-2V78.74h2a9.29,9.29,0,0,1,2.1-5.92,7.33,7.33,0,0,1,5.8-2.37l1.11,0v5.37h-.28a3.66,3.66,0,0,0-2.45.67,2.78,2.78,0,0,0-.75,2.17v.06H84V83.6Zm5.69-12.54H92v5.07H86.42Zm0,7.68H92v23H86.42ZM105.68,85a2.57,2.57,0,0,0-.78-1.46,2.16,2.16,0,0,0-1.46-.48,2.23,2.23,0,0,0-1.55.54,1.84,1.84,0,0,0-.6,1.42,1.56,1.56,0,0,0,.75,1.34,11.92,11.92,0,0,0,2.88,1.15,11.9,11.9,0,0,1,5.19,2.78,6.28,6.28,0,0,1,1.54,4.42,7.51,7.51,0,0,1-2.3,5.66,8.14,8.14,0,0,1-5.87,2.2,8.39,8.39,0,0,1-6-2.22A8.09,8.09,0,0,1,95,94.5h5.67a4,4,0,0,0,1,2.22,2.61,2.61,0,0,0,2,.76,2.74,2.74,0,0,0,1.86-.63,2,2,0,0,0,.73-1.62,2.11,2.11,0,0,0-.66-1.66,7.49,7.49,0,0,0-2.57-1.17,13.38,13.38,0,0,1-5.5-2.84,5.87,5.87,0,0,1-1.64-4.34A6.79,6.79,0,0,1,98,80a8,8,0,0,1,5.62-2,7.25,7.25,0,0,1,5.14,2,7.16,7.16,0,0,1,2.34,5Zm9-13.9h5.54v9.3a8.28,8.28,0,0,1,6-2.39,8.15,8.15,0,0,1,6.48,2.76,10.94,10.94,0,0,1,2.4,7.45v13.58h-5.53V89.4a8.11,8.11,0,0,0-1.17-4.77A3.92,3.92,0,0,0,125,83a4.1,4.1,0,0,0-3.58,1.66,8.57,8.57,0,0,0-1.18,5v12.12h-5.54Zm24.86,0h5.54v5.07h-5.54Zm0,7.68h5.54v23h-5.54Zm10,0h5.15v2A8.6,8.6,0,0,1,161.1,78a8.17,8.17,0,0,1,6.5,2.77A11,11,0,0,1,170,88.2v13.56h-5.54V89.44a8.21,8.21,0,0,0-1.17-4.8A3.92,3.92,0,0,0,159.87,83a4.13,4.13,0,0,0-3.59,1.66,8.49,8.49,0,0,0-1.2,5v12.12h-5.53Zm36.09,27.35a6.9,6.9,0,0,0,5.31-2.21A7.85,7.85,0,0,0,193,99a10.85,10.85,0,0,1-8.06,3.53,10.59,10.59,0,0,1-8-3.58,13,13,0,0,1,0-17.38,10.56,10.56,0,0,1,8-3.6,10.33,10.33,0,0,1,7.8,3.34V78.74h5.35v18.7q0,6.19-3.46,10a11.87,11.87,0,0,1-9.17,3.75,12.77,12.77,0,0,1-7.24-2.08,10,10,0,0,1-4.16-5.54h6.42a4.21,4.21,0,0,0,2,1.87A7,7,0,0,0,185.64,106.09ZM185.8,83a6.21,6.21,0,0,0-4.78,2.1,7.93,7.93,0,0,0,0,10.37,6.21,6.21,0,0,0,4.76,2.08,6.27,6.27,0,0,0,4.79-2.08,7.93,7.93,0,0,0,0-10.38A6.25,6.25,0,0,0,185.8,83Z"/></clipPath></defs><path class="cls-5" d="M157.5,47.32c6.44,4.86,26.63-10.71,40.78-17.41V94.42c-20.36-7.32-35.06-20.45-48-34a55.51,55.51,0,0,0,7.25-13.11"/><g class="cls-6"><rect class="cls-7" x="150.25" y="29.91" width="48.03" height="64.51"/></g><path class="cls-8" d="M157.5,47.32c6.44,4.86,26.63-10.71,40.78-17.41V40.46c-11.76,1.53-22.67,8.68-30.64,14.65-3.66,2.75-8.33,6.62-12.56,10.24-1.64-1.62-3.25-3.27-4.83-4.92a55.51,55.51,0,0,0,7.25-13.11"/><path class="cls-5" d="M119.38,21.49a107.41,107.41,0,0,1,42.15,32.32c-11.28,3.46-15.73,12.08-24.69,16.48a112.27,112.27,0,0,1-49.68,11.5A112.25,112.25,0,0,1,24.32,62.68c8.49-17.54,36.61-61.34,95.06-41.19"/><g class="cls-9"><rect class="cls-7" x="24.32" y="1.34" width="137.21" height="80.46"/></g><path class="cls-8" d="M150.36,41.68a106.92,106.92,0,0,1,11.17,12.13c-11.28,3.46-15.73,12.08-24.69,16.48a112.27,112.27,0,0,1-49.68,11.5A113.12,113.12,0,0,1,55,77.16c50.25,9.46,84.5-23.23,95.32-35.48"/><path class="cls-10" d="M119.38,21.49l.54.24c-.14,0-16.53-3.06-27,10-9.25,11.53-14,36.53-40.61,44.59a112.62,112.62,0,0,1-28-13.63c8.49-17.54,36.61-61.34,95.06-41.19"/><path class="cls-8" d="M77.38,12.94a106.82,106.82,0,0,1,42,8.55C84.41,10.17,72.83,54.14,54,61.92c-18.3,7.53-29,1.16-29.64.76A113.67,113.67,0,0,1,2.48,43.52a106.71,106.71,0,0,1,74.9-30.58"/><g class="cls-11"><rect class="cls-12" x="2.48" y="10.17" width="116.9" height="59.28"/></g><path class="cls-10" d="M57.83,77.94a112.63,112.63,0,0,0,94.35-16.76c3-2.14,5.68-4.48,8.58-6.77a154.52,154.52,0,0,1,37.52-21.83V8.86c-31.72,16-50.23,46-75,59.5C90.92,86,57.83,77.94,57.83,77.94"/><g class="cls-13"><rect class="cls-14" x="57.83" y="8.86" width="140.46" height="77.83"/></g><path class="cls-12" d="M7.87,101.7H2.2V71h7.92l8.17,23.32h0L26.39,71h7.92v30.7H28.64V78.4h0l-8.11,23.3H16L7.86,78.46h0Z"/><path class="cls-12" d="M47.26,109.46H41.4l4.27-9.83v0l-8.42-21h6.24l5.24,15h0l5.63-15h6.25Z"/><path class="cls-12" d="M80.73,83.54V101.7H75.2V83.54h-2V78.68h2a9.29,9.29,0,0,1,2.1-5.92,7.33,7.33,0,0,1,5.8-2.37l1.11,0v5.37h-.28a3.66,3.66,0,0,0-2.45.67,2.78,2.78,0,0,0-.75,2.17v.06H84v4.86Z"/><path class="cls-12" d="M86.42,71H92v5.07H86.42Zm0,7.68H92v23H86.42Z"/><path class="cls-12" d="M105.68,84.9a2.54,2.54,0,0,0-.78-1.46,2.16,2.16,0,0,0-1.46-.49,2.24,2.24,0,0,0-1.55.55,1.84,1.84,0,0,0-.6,1.42,1.56,1.56,0,0,0,.75,1.34,12.36,12.36,0,0,0,2.88,1.15,11.8,11.8,0,0,1,5.19,2.78,6.27,6.27,0,0,1,1.54,4.41,7.52,7.52,0,0,1-2.3,5.67,8.14,8.14,0,0,1-5.87,2.2,8.39,8.39,0,0,1-6-2.22A8.09,8.09,0,0,1,95,94.44h5.67a4,4,0,0,0,1,2.22,2.61,2.61,0,0,0,2,.76,2.74,2.74,0,0,0,1.86-.63,2,2,0,0,0,.73-1.62,2.11,2.11,0,0,0-.66-1.66,7.49,7.49,0,0,0-2.57-1.17,13.38,13.38,0,0,1-5.5-2.84,5.89,5.89,0,0,1-1.64-4.34A6.79,6.79,0,0,1,98,79.94a8,8,0,0,1,5.62-2,7.25,7.25,0,0,1,5.14,2,7.16,7.16,0,0,1,2.34,5Z"/><path class="cls-12" d="M114.68,71h5.54v9.3a8.28,8.28,0,0,1,6-2.39,8.15,8.15,0,0,1,6.48,2.76,10.94,10.94,0,0,1,2.4,7.45V101.7h-5.53V89.34a8.11,8.11,0,0,0-1.17-4.77A3.93,3.93,0,0,0,125,82.93a4.1,4.1,0,0,0-3.58,1.67,8.55,8.55,0,0,0-1.18,5V101.7h-5.54Z"/><path class="cls-12" d="M139.54,71h5.54v5.07h-5.54Zm0,7.68h5.54v23h-5.54Z"/><path class="cls-12" d="M149.55,78.68h5.15v2a8.6,8.6,0,0,1,6.4-2.76,8.17,8.17,0,0,1,6.5,2.77,11,11,0,0,1,2.4,7.46V101.7h-5.54V89.38a8.21,8.21,0,0,0-1.17-4.8,3.93,3.93,0,0,0-3.42-1.65,4.13,4.13,0,0,0-3.59,1.67,8.46,8.46,0,0,0-1.2,5V101.7h-5.53Z"/><path class="cls-12" d="M185.64,106a6.9,6.9,0,0,0,5.31-2.21,7.85,7.85,0,0,0,2-4.88,10.85,10.85,0,0,1-8.06,3.53,10.59,10.59,0,0,1-8-3.58,13,13,0,0,1,0-17.38,10.56,10.56,0,0,1,8-3.6,10.33,10.33,0,0,1,7.8,3.34V78.68h5.35v18.7q0,6.2-3.46,10a11.87,11.87,0,0,1-9.17,3.75,12.77,12.77,0,0,1-7.24-2.08,10,10,0,0,1-4.16-5.54h6.42a4.21,4.21,0,0,0,2,1.87A7,7,0,0,0,185.64,106Zm.16-23.12A6.21,6.21,0,0,0,181,85a7.38,7.38,0,0,0-1.93,5.2A7.29,7.29,0,0,0,181,95.37a6.19,6.19,0,0,0,4.76,2.09,6.25,6.25,0,0,0,4.79-2.09,7.91,7.91,0,0,0,0-10.37A6.25,6.25,0,0,0,185.8,82.91Z"/><g class="cls-15"><ellipse class="cls-7" cx="97.73" cy="109.93" rx="109.15" ry="21.89"/></g></svg>